<svg width="314" height="314" viewBox="0 0 314 314" fill="none" xmlns="http://www.w3.org/2000/svg">
<rect width="314" height="314" rx="150" fill="#0F0514"/>
<path fill-rule="evenodd" clip-rule="evenodd" d="M158.471 282.992C157.981 282.997 157.491 283 157 283C155.686 283 154.376 282.98 153.072 282.94C152.925 281.703 152.582 280.468 152.027 279.278L128.37 228.544L157 167.146L184.405 225.915L159.521 279.278C158.959 280.485 158.614 281.737 158.471 282.992ZM185.81 279.691C192.905 278.032 199.769 275.773 206.347 272.97L197.645 254.31L185.81 279.691ZM227.465 261.47C260.972 238.825 283 200.485 283 157C283 136.568 278.137 117.272 269.505 100.206L210.886 225.915L227.465 261.47ZM254.027 76.6098L197.645 197.521L167.914 133.762C167.63 133.14 167.292 132.541 166.904 131.973C166.59 131.512 166.247 131.079 165.879 130.674C165.252 129.985 164.554 129.379 163.8 128.862C163.142 128.41 162.442 128.027 161.713 127.715C158.744 126.449 155.281 126.378 152.114 127.791C151.637 128.003 151.174 128.247 150.727 128.52C150.636 128.576 150.546 128.633 150.457 128.69C148.496 129.962 147.006 131.742 146.082 133.77L115.129 200.15L58.415 78.5257C81.5007 49.5622 117.083 31 157 31C196.03 31 230.915 48.7461 254.027 76.6098ZM43.2371 102.765C35.3921 119.192 31 137.583 31 157C31 200.485 53.0285 238.825 86.5351 261.47L101.889 228.544L43.2371 102.765ZM107.653 272.97C113.371 275.406 119.306 277.432 125.421 279.01L115.129 256.938L107.653 272.97ZM307 157C307 239.843 239.843 307 157 307C74.1573 307 7 239.843 7 157C7 74.1573 74.1573 7 157 7C239.843 7 307 74.1573 307 157Z" fill="url(#paint0_linear_24_467)"/>
<defs>
<linearGradient id="paint0_linear_24_467" x1="6.99999" y1="-49.25" x2="394.5" y2="444.5" gradientUnits="userSpaceOnUse">
<stop stop-color="#9B2ECE"/>
<stop offset="1" stop-color="#A91A1A"/>
</linearGradient>
</defs>
</svg>
