<svg width="180" height="166" viewBox="0 0 180 166" fill="none" xmlns="http://www.w3.org/2000/svg">
<path d="M90 165.125L77.0708 153.479C62.0611 139.892 49.6521 128.172 39.8438 118.318C30.0354 108.463 22.2333 99.6171 16.4375 91.7786C10.6417 83.94 6.59202 76.736 4.28855 70.1666C1.98508 63.5971 0.833344 56.8784 0.833344 50.0103C0.833344 35.9756 5.51459 24.2551 14.8771 14.8489C24.2396 5.44263 35.9056 0.739502 49.875 0.739502C57.6028 0.739502 64.959 2.38186 71.9438 5.66659C78.9285 8.95131 84.9472 13.5798 90 19.552C95.0528 13.5798 101.072 8.95131 108.056 5.66659C115.041 2.38186 122.397 0.739502 130.125 0.739502C144.094 0.739502 155.76 5.44263 165.123 14.8489C174.485 24.2551 179.167 35.9756 179.167 50.0103C179.167 56.8784 178.015 63.5971 175.711 70.1666C173.408 76.736 169.358 83.94 163.562 91.7786C157.767 99.6171 149.965 108.463 140.156 118.318C130.348 128.172 117.939 139.892 102.929 153.479L90 165.125Z" fill="#AD5CD6"/>
</svg>
