<svg width="33" height="34" viewBox="0 0 33 34" fill="none" xmlns="http://www.w3.org/2000/svg">
<path d="M16.5 21.5C17.75 21.5 18.8125 21.0625 19.6875 20.1875C20.5625 19.3125 21 18.25 21 17C21 15.75 20.5625 14.6875 19.6875 13.8125C18.8125 12.9375 17.75 12.5 16.5 12.5C15.25 12.5 14.1875 12.9375 13.3125 13.8125C12.4375 14.6875 12 15.75 12 17C12 18.25 12.4375 19.3125 13.3125 20.1875C14.1875 21.0625 15.25 21.5 16.5 21.5ZM16.5 24.5C14.425 24.5 12.6562 23.7688 11.1938 22.3063C9.73125 20.8438 9 19.075 9 17C9 14.925 9.73125 13.1562 11.1938 11.6938C12.6562 10.2312 14.425 9.5 16.5 9.5C18.575 9.5 20.3438 10.2312 21.8063 11.6938C23.2688 13.1562 24 14.925 24 17C24 19.075 23.2688 20.8438 21.8063 22.3063C20.3438 23.7688 18.575 24.5 16.5 24.5ZM1.5 18.5C1.075 18.5 0.71875 18.3563 0.43125 18.0688C0.14375 17.7812 0 17.425 0 17C0 16.575 0.14375 16.2188 0.43125 15.9313C0.71875 15.6438 1.075 15.5 1.5 15.5H4.5C4.925 15.5 5.28125 15.6438 5.56875 15.9313C5.85625 16.2188 6 16.575 6 17C6 17.425 5.85625 17.7812 5.56875 18.0688C5.28125 18.3563 4.925 18.5 4.5 18.5H1.5ZM28.5 18.5C28.075 18.5 27.7188 18.3563 27.4313 18.0688C27.1438 17.7812 27 17.425 27 17C27 16.575 27.1438 16.2188 27.4313 15.9313C27.7188 15.6438 28.075 15.5 28.5 15.5H31.5C31.925 15.5 32.2812 15.6438 32.5687 15.9313C32.8563 16.2188 33 16.575 33 17C33 17.425 32.8563 17.7812 32.5687 18.0688C32.2812 18.3563 31.925 18.5 31.5 18.5H28.5ZM16.5 6.5C16.075 6.5 15.7188 6.35625 15.4313 6.06875C15.1438 5.78125 15 5.425 15 5V2C15 1.575 15.1438 1.21875 15.4313 0.93125C15.7188 0.64375 16.075 0.5 16.5 0.5C16.925 0.5 17.2812 0.64375 17.5688 0.93125C17.8563 1.21875 18 1.575 18 2V5C18 5.425 17.8563 5.78125 17.5688 6.06875C17.2812 6.35625 16.925 6.5 16.5 6.5ZM16.5 33.5C16.075 33.5 15.7188 33.3563 15.4313 33.0687C15.1438 32.7812 15 32.425 15 32V29C15 28.575 15.1438 28.2188 15.4313 27.9313C15.7188 27.6438 16.075 27.5 16.5 27.5C16.925 27.5 17.2812 27.6438 17.5688 27.9313C17.8563 28.2188 18 28.575 18 29V32C18 32.425 17.8563 32.7812 17.5688 33.0687C17.2812 33.3563 16.925 33.5 16.5 33.5ZM6.975 9.575L5.3625 8C5.0625 7.725 4.91875 7.375 4.93125 6.95C4.94375 6.525 5.0875 6.1625 5.3625 5.8625C5.6625 5.5625 6.025 5.4125 6.45 5.4125C6.875 5.4125 7.225 5.5625 7.5 5.8625L9.075 7.475C9.35 7.775 9.4875 8.125 9.4875 8.525C9.4875 8.925 9.35 9.275 9.075 9.575C8.8 9.875 8.45625 10.0188 8.04375 10.0063C7.63125 9.99375 7.275 9.85 6.975 9.575ZM25.5 28.1375L23.925 26.525C23.65 26.225 23.5125 25.8688 23.5125 25.4563C23.5125 25.0438 23.65 24.7 23.925 24.425C24.2 24.125 24.5438 23.9813 24.9563 23.9938C25.3688 24.0063 25.725 24.15 26.025 24.425L27.6375 26C27.9375 26.275 28.0812 26.625 28.0687 27.05C28.0562 27.475 27.9125 27.8375 27.6375 28.1375C27.3375 28.4375 26.975 28.5875 26.55 28.5875C26.125 28.5875 25.775 28.4375 25.5 28.1375ZM23.925 9.575C23.625 9.3 23.4813 8.95625 23.4938 8.54375C23.5063 8.13125 23.65 7.775 23.925 7.475L25.5 5.8625C25.775 5.5625 26.125 5.41875 26.55 5.43125C26.975 5.44375 27.3375 5.5875 27.6375 5.8625C27.9375 6.1625 28.0875 6.525 28.0875 6.95C28.0875 7.375 27.9375 7.725 27.6375 8L26.025 9.575C25.725 9.85 25.375 9.9875 24.975 9.9875C24.575 9.9875 24.225 9.85 23.925 9.575ZM5.3625 28.1375C5.0625 27.8375 4.9125 27.475 4.9125 27.05C4.9125 26.625 5.0625 26.275 5.3625 26L6.975 24.425C7.275 24.15 7.63125 24.0125 8.04375 24.0125C8.45625 24.0125 8.8 24.15 9.075 24.425C9.375 24.7 9.51875 25.0438 9.50625 25.4563C9.49375 25.8688 9.35 26.225 9.075 26.525L7.5 28.1375C7.225 28.4375 6.875 28.5812 6.45 28.5687C6.025 28.5562 5.6625 28.4125 5.3625 28.1375Z" fill="#F4ECF8"/>
</svg>
